<?xml version="1.0" standalone="no"?><!DOCTYPE svg PUBLIC "-//W3C//DTD SVG 1.1//EN" "http://www.w3.org/Graphics/SVG/1.1/DTD/svg11.dtd"><svg t="1604395301987" class="icon" viewBox="0 0 1024 1024" version="1.1" xmlns="http://www.w3.org/2000/svg" p-id="5084" xmlns:xlink="http://www.w3.org/1999/xlink" width="128" height="128"><defs><style type="text/css"></style></defs><path d="M410.28 139.5c-31.68 32.32-38.24 158.08 104.32 184.8-16.48-0.64-40.64-5.6-65.6-14.4-51.52-18.08-105.76-52.8-98.24-100.16 0.64-4.32 1.76-8.8 3.52-13.28 8.32-21.44 27.36-42.08 56-56.96zM675.24 196.46c1.44 4.48 2.24 8.96 2.72 13.44 3.84 47.36-51.04 83.84-100.96 102.08-22.56 8-43.84 12.48-58.56 12.48h-1.76C660.04 297.74 653 171.18 621 139.18l0.48-1.12c27.84 13.92 46.24 34.08 53.76 58.4z" fill="#6981FF" p-id="5085"></path><path d="M621 139.18c32 32 39.04 158.56-104.32 185.28h-0.32c-0.48 0-1.12 0-1.76-0.16-142.56-26.72-136-152.48-104.32-184.8 26.72-14.08 61.6-23.04 104-23.04 43.68 0 79.84 7.84 107.2 21.6l-0.48 1.12z" fill="#FFFFFF" p-id="5086"></path><path d="M721.96 910.54H306.44c-9.12 0-16.48-7.2-16.48-16.32v-22.08h448v22.4c0 8.96-7.04 16-16 16z" fill="#6981FF" p-id="5087"></path><path d="M257.64 815.82h0.16c-0.32 5.28-0.32 10.56-0.32 15.84v22.56h-79.52c-8.8 0-16-7.04-16-16v-22.4h95.68zM769.32 815.82h96.64v22.4c0 8.96-7.04 16-16 16h-80.48v-22.56c0-5.28 0-10.56-0.32-15.84h0.16z" fill="#FFBBEC" p-id="5088"></path><path d="M865.96 815.82h-96.8c-0.16-17.76-1.28-35.36-2.88-52.96-1.12-12.96-2.72-25.92-4.64-38.88-6.08-42.24-15.2-102.72-24.16-158.08-10.88-66.4-16-212.32 16-294.08l0.64-0.32c2.24 5.12 4 10.56 5.28 16.16L864.04 650.7c11.2 39.04 16.96 79.36 16.96 119.84v45.28h-15.04zM273.48 271.82c32.16 81.76 27.04 227.68 16.16 294.08-9.12 55.36-18.08 115.84-24.32 158.08-1.92 12.96-3.52 25.92-4.64 39.04-1.6 17.6-2.72 35.2-2.88 52.8H145v-45.28c0-40.48 5.76-80.8 16.96-119.84L266.6 287.66c1.28-5.76 3.2-11.2 5.44-16.48l1.44 0.64z" fill="#6981FF" p-id="5089"></path><path d="M769.48 856.14c0 8.96-7.2 16-16 16h-480c-8.8 0-16-7.04-16-16V831.66c0-5.28 0-10.56 0.32-15.84 0.16-17.6 1.28-35.2 2.88-52.8l37.28 3.36c6.4 1.44 12.8 2.24 19.52 2.24 53.12 0 96-48.16 96-107.84v-2.24H613v2.24c0 59.68 42.88 107.84 96 107.84 7.2 0 14.24-0.8 20.96-2.56l36.32-3.2c1.6 17.6 2.72 35.2 2.88 52.96 0.32 5.28 0.32 10.56 0.32 15.84V856.14z" fill="#FFBBEC" p-id="5090"></path><path d="M577 311.98c49.92-18.24 104.8-54.72 100.96-102.08h0.16c34.08 6.72 62.88 29.76 76 61.6l-0.64 0.32c-32 81.76-26.88 227.68-16 294.08 8.96 55.36 18.08 115.84 24.16 158.08 1.92 12.96 3.52 25.92 4.64 38.88l-36.32 3.2c-6.72 1.76-13.76 2.56-20.96 2.56-53.12 0-96-48.16-96-107.84v-2.24H413.48v2.24c0 59.68-42.88 107.84-96 107.84-6.72 0-13.12-0.8-19.52-2.24l-37.28-3.36c1.12-13.12 2.72-26.08 4.64-39.04 6.24-42.24 15.2-102.72 24.32-158.08 10.88-66.4 16-212.32-16.16-294.08l-1.44-0.64c13.44-32.16 43.04-55.36 77.92-61.6l0.8 0.16c-7.52 47.36 46.72 82.08 98.24 100.16 24.96 8.8 49.12 13.76 65.6 14.4 0.64 0.16 1.28 0.16 1.76 0.16h2.08c14.72 0 36-4.48 58.56-12.48z" fill="#FFBBEC" p-id="5091"></path><path d="M859.04 650.7L754.4 287.66c-1.28-5.6-3.04-11.04-5.28-16.16-13.12-31.84-41.92-54.88-76-61.6h-0.16c-0.48-4.32-10.05 5.07-1.53 9.38 21.77 11 39.3 29.34 48.73 52.22 2.24 5.12 4 10.56 5.28 16.16L830.08 650.7c11.2 39.04 16.96 79.36 16.96 119.84v45.28H876v-45.28c0-40.48-5.76-80.8-16.96-119.84z" fill="#461E63" opacity=".24" p-id="5092"></path><path d="M350.76 209.74l-0.8-0.16c-34.88 6.24-64.48 29.44-77.92 61.6-2.24 5.28-4.16 10.72-5.44 16.48L161.96 650.7C150.76 689.74 145 730.06 145 770.54v45.28h16.96v0.06h32v-0.06H177v-45.28c0-40.48 5.76-80.8 16.96-119.84L298.6 287.66c1.28-5.76 3.2-11.2 5.44-16.48 9.14-21.86 25.74-39.58 46.4-50.65l0.87-10.79h-0.55z" fill="#FFFFFF" p-id="5093"></path><path d="M257.69 823.88H145c-4.42 0-8-3.58-8-8v-45.39c0-41.23 5.8-82.27 17.24-121.94l104.7-363.16c9.85-42.84 45.07-75.88 89.62-83.76 4.31-0.84 8.51 2.13 9.27 6.48 0.77 4.35-2.13 8.5-6.48 9.27-38.21 6.76-68.41 35.02-76.92 72.02L169.62 652.99A423.74 423.74 0 0 0 153 770.49v37.39h104.69c4.42 0 8 3.58 8 8s-3.58 8-8 8zM881 823.88H769.34c-4.42 0-8-3.58-8-8s3.58-8 8-8H873v-37.39c0-39.75-5.59-79.3-16.61-117.5l-104.7-363.16c-8.45-36.62-37.89-64.74-75.12-72.08-4.33-0.86-7.16-5.06-6.3-9.4 0.84-4.34 5.11-7.16 9.39-6.3 43.41 8.55 77.77 41.44 87.52 83.77l104.59 362.73A440.24 440.24 0 0 1 889 770.49v45.39c0 4.42-3.58 8-8 8z" fill="#1B1B1B" p-id="5094"></path><path d="M529.03 880.22H273.52c-13.23 0-24-10.77-24-24V831.7c0-36.41 2.66-73.06 7.9-108.92 6.04-41.36 15.15-102.36 24.27-158.16 11.65-71.2 14.75-212.55-15.59-289.82-1.62-4.11 0.41-8.75 4.52-10.37 4.11-1.59 8.75 0.41 10.37 4.52 31.44 80.05 28.42 225.3 16.49 298.26-9.11 55.67-18.21 116.58-24.24 157.88a740.997 740.997 0 0 0-7.73 106.61v24.52c0 4.41 3.59 8 8 8h255.52c4.42 0 8 3.58 8 8s-3.58 8-8 8z" fill="#1B1B1B" p-id="5095"></path><path d="M753.52 880.22H498c-4.42 0-8-3.58-8-8s3.58-8 8-8h255.52c4.41 0 8-3.59 8-8V831.7c0-35.64-2.59-71.52-7.73-106.61-5.98-41.06-15.05-101.78-24.22-157.88-11.94-72.97-14.94-218.23 16.47-298.26 1.62-4.12 6.28-6.12 10.38-4.52 4.11 1.61 6.14 6.26 4.53 10.37-30.33 77.24-27.23 218.6-15.59 289.82 9.2 56.22 18.28 117.03 24.28 158.16 5.23 35.86 7.89 72.52 7.89 108.92v24.52c-0.01 13.24-10.78 24-24.01 24z" fill="#1B1B1B" p-id="5096"></path><path d="M708.98 776.66c-55.62 0-101.2-48.86-103.91-110.05H421.42c-2.71 61.19-48.28 110.05-103.91 110.05-7.16 0-14.31-0.81-21.28-2.42-4.3-1-6.99-5.3-6-9.59 1-4.3 5.3-7 9.59-6a78.558 78.558 0 0 0 17.69 2.02c48.54 0 88.03-44.78 88.03-99.81 0-4.42 3.55-10.23 7.98-10.23h199.46c2.16 0 4.2 0.86 5.72 2.41a7.983 7.983 0 0 1 2.28 5.77l-0.03 2.06c0 55.03 39.48 99.81 88.03 99.81 6.47 0 12.89-0.8 19.09-2.36 4.33-1.05 8.62 1.53 9.72 5.81 1.08 4.28-1.53 8.62-5.81 9.72a95.23 95.23 0 0 1-23 2.81zM257.52 862.28h-79.48c-13.23 0-24-10.77-24-24v-22.41c0-4.42 3.58-8 8-8s8 3.58 8 8v22.41c0 4.41 3.59 8 8 8h79.48c4.42 0 8 3.58 8 8s-3.58 8-8 8zM850.03 862.28h-80.52c-4.42 0-8-3.58-8-8s3.58-8 8-8h80.52c4.41 0 8-3.59 8-8v-22.41c0-4.42 3.58-8 8-8s8 3.58 8 8v22.41c0 13.24-10.76 24-24 24z" fill="#1B1B1B" p-id="5097"></path><path d="M449 431.88v-128" fill="#FFFFFF" p-id="5098"></path><path d="M449 439.89c-4.42 0-8-3.58-8-8v-128c0-4.42 3.58-8 8-8s8 3.58 8 8v128c0 4.42-3.58 8-8 8z" fill="#1B1B1B" p-id="5099"></path><path d="M577 431.88v-128" fill="#FFFFFF" p-id="5100"></path><path d="M577 439.89c-4.42 0-8-3.58-8-8v-128c0-4.42 3.58-8 8-8s8 3.58 8 8v128c0 4.42-3.58 8-8 8z" fill="#1B1B1B" p-id="5101"></path><path d="M722.03 918.63H306.4c-13.44 0-24.37-10.94-24.37-24.38v-22.03c0-4.42 3.58-8 8-8s8 3.58 8 8v22.03c0 4.62 3.75 8.38 8.37 8.38h415.63c4.41 0 8-3.59 8-8v-22.41c0-4.42 3.58-8 8-8s8 3.58 8 8v22.41c0 13.23-10.76 24-24 24z" fill="#1B1B1B" p-id="5102"></path><path d="M518.38 332.53c-38.03 0-130.28-26.62-163.72-75.42-13.74-20.06-16.39-41.41-7.85-63.47 15.2-39.26 68.18-85.11 167.46-85.11 89.05 0 152.11 32.02 168.67 85.64 6.91 22.36 2.66 44.23-12.66 64.99-33.05 44.78-112.03 73.37-151.9 73.37z m-4.11-208c-85.34 0-138.11 37.61-152.54 74.89-6.61 17.07-4.6 32.98 6.13 48.64 29.1 42.48 113.98 68.47 150.52 68.47 35.7 0 109.38-26.67 139.03-66.87 12.12-16.45 15.58-33.53 10.25-50.77-14.39-46.57-71.74-74.36-153.39-74.36z" fill="#1B1B1B" p-id="5103"></path><path d="M515.31 332.53c-0.48 0-0.98-0.04-1.47-0.13-87.29-16.2-115.45-67.37-124.47-96.42-13.35-43.03-1.92-84.88 15.62-102.42 3.12-3.12 8.19-3.12 11.31 0s3.12 8.19 0 11.31c-14.11 14.12-22.58 51.15-11.65 86.37 9.71 31.28 37.04 71.5 112.09 85.43 4.34 0.8 7.22 4.98 6.41 9.33-0.7 3.84-4.07 6.53-7.84 6.53z" fill="#1B1B1B" p-id="5104"></path><path d="M516.41 332.53c-3.78 0-7.14-2.69-7.84-6.54-0.81-4.34 2.06-8.52 6.41-9.33 75.06-13.93 102.39-54.15 112.09-85.43 10.94-35.22 2.47-72.25-11.64-86.37-3.12-3.12-3.12-8.19 0-11.31s8.19-3.12 11.31 0c17.53 17.54 28.97 59.39 15.61 102.42-9.02 29.05-37.17 80.22-124.47 96.42-0.49 0.1-0.99 0.14-1.47 0.14z" fill="#1B1B1B" p-id="5105"></path><path d="M449.58 763.06c-4.42 0-8-3.58-8-8v-12.59c0-4.42 3.58-8 8-8s8 3.58 8 8v12.59c0 4.43-3.58 8-8 8zM582.61 763.06c-4.42 0-8-3.58-8-8v-12.59c0-4.42 3.58-8 8-8s8 3.58 8 8v12.59c0 4.43-3.58 8-8 8z" fill="#1B1B1B" p-id="5106"></path><path d="M530.78 793.38c-0.47 0-0.94-0.02-1.41-0.05-5.16-0.34-9.98-2.55-13.95-6.23-3.8 3.64-8.45 5.8-13.45 6.12-7.12 0.52-14.05-2.94-18.84-9.33-2.64-3.55-1.92-8.56 1.61-11.2 3.52-2.64 8.53-1.94 11.2 1.61 0.88 1.17 2.83 3.56 4.98 2.95 1.95-0.12 3.92-1.7 5.41-4.33l1.92-3.45c1.39-2.48 4-4.05 6.86-4.09 2.91-0.39 5.5 1.42 6.98 3.89l1.97 3.28c1.75 2.91 4.06 4.66 6.38 4.81 2.05 0.27 4.17-1.02 5.97-3.25 2.77-3.47 7.81-3.98 11.23-1.27 3.45 2.75 4.03 7.78 1.27 11.23-4.75 5.98-11.3 9.31-18.13 9.31z" fill="#1B1B1B" p-id="5107"></path></svg>